<svg width="125" height="19" viewBox="0 0 125 19" fill="none" xmlns="http://www.w3.org/2000/svg">
<path d="M122.184 0.840088H124.704V18.0001H122.184V16.5841H122.136C121.488 17.4241 120.288 18.3601 118.392 18.3601C115.248 18.3601 112.92 15.9121 112.92 11.8801C112.92 7.84809 115.248 5.40009 118.392 5.40009C120.288 5.40009 121.488 6.28809 122.136 7.22409H122.184V0.840088ZM118.824 16.2961C120.888 16.2961 122.16 14.5921 122.16 11.8801C122.16 9.14409 120.888 7.46409 118.824 7.46409C116.616 7.46409 115.44 9.48009 115.44 11.8801C115.44 14.2801 116.616 16.2961 118.824 16.2961Z" fill="#121212"/>
<path d="M106.704 5.3999C108.984 5.3999 110.784 6.7199 110.784 9.5279V17.9999H108.24V10.2479C108.24 8.5919 107.544 7.5359 105.816 7.5359C103.872 7.5359 102.624 8.7119 102.624 10.5359V17.9999H100.104V5.7359H102.624V7.3199H102.672C103.32 6.3599 104.592 5.3999 106.704 5.3999Z" fill="#121212"/>
<path d="M94.703 5.73608H97.223V18.0001H94.703V16.4161H94.655C94.007 17.3761 92.735 18.3361 90.623 18.3361C88.343 18.3361 86.543 17.0161 86.543 14.2081V5.73608H89.087V13.4881C89.087 15.1441 89.783 16.2001 91.511 16.2001C93.455 16.2001 94.703 15.0241 94.703 13.2001V5.73608Z" fill="#121212"/>
<path d="M73.2734 0.840088H76.1294V15.5761H84.6974V18.0001H73.2734V0.840088Z" fill="#121212"/>
<path d="M64.7578 5.448C65.1898 5.448 65.5018 5.472 65.8618 5.52V7.896H65.8138C63.3898 7.488 61.4458 9.12 61.4458 11.736V18H58.9258V5.736H61.4458V8.04H61.4938C62.1418 6.504 63.1498 5.448 64.7578 5.448Z" fill="#121212"/>
<path d="M53.2761 8.9519C53.2761 8.0639 52.7481 7.3919 51.0681 7.3919C49.0521 7.3919 48.3081 8.0159 48.1881 9.5999H45.7401C45.8601 7.2479 47.3721 5.3999 51.0681 5.3999C53.7801 5.3999 55.7961 6.4319 55.7961 9.6959V15.5279C55.7961 16.3919 55.9881 16.8479 56.9721 16.7519V17.9519C56.3961 18.1679 55.9881 18.2159 55.5081 18.2159C54.1641 18.2159 53.5401 17.7359 53.3001 16.5359H53.2521C52.4841 17.6159 51.0921 18.3599 49.1961 18.3599C46.7001 18.3599 45.1641 16.9199 45.1641 14.8559C45.1641 12.1679 47.1561 11.3279 50.2281 10.7279C52.1241 10.3679 53.2761 10.1279 53.2761 8.9519ZM49.7481 16.3679C51.8361 16.3679 53.2761 15.3359 53.2761 13.3439V11.4959C52.8681 11.7839 51.8841 12.0719 50.7081 12.3119C48.6201 12.7679 47.7081 13.3679 47.7081 14.6159C47.7081 15.7439 48.3801 16.3679 49.7481 16.3679Z" fill="#121212"/>
<path d="M40.9593 10.2239C40.8633 8.9759 40.0713 7.4639 37.9113 7.4639C35.4393 7.4639 34.3833 9.5759 34.3833 11.8799C34.3833 14.1839 35.4153 16.2959 37.9113 16.2959C40.0713 16.2959 40.8633 14.8079 40.9593 13.4399H43.4793C43.2873 16.2719 41.1033 18.3599 37.9113 18.3599C34.2393 18.3599 31.8633 15.7199 31.8633 11.8799C31.8633 8.0399 34.2393 5.3999 37.8873 5.3999C41.0793 5.3999 43.1673 7.4399 43.4793 10.2239H40.9593Z" fill="#121212"/>
<path d="M25.4529 10.5839C27.7089 11.1119 30.1569 11.6159 30.1569 14.5439C30.1569 16.8959 28.1409 18.3599 25.1649 18.3599C21.2049 18.3599 19.5009 16.5119 19.3809 13.9199H21.8289C21.9489 15.2399 22.5249 16.3679 25.1169 16.3679C26.8689 16.3679 27.6129 15.5039 27.6129 14.7359C27.6129 13.1999 26.1489 13.0799 24.3489 12.6479C22.4049 12.1919 19.7649 11.8079 19.7649 9.0239C19.7649 7.0079 21.5409 5.3999 24.6129 5.3999C27.9489 5.3999 29.5329 7.1999 29.7009 9.3359H27.2529C27.0849 8.3759 26.6049 7.3919 24.6369 7.3919C23.1249 7.3919 22.3089 7.9679 22.3089 8.8319C22.3089 10.0799 23.6769 10.1759 25.4529 10.5839Z" fill="#121212"/>
<path d="M9.24041 18.36C4.05641 18.36 0.816406 14.568 0.816406 9.40798C0.816406 4.24798 4.05641 0.47998 9.24041 0.47998C14.4004 0.47998 17.6644 4.24798 17.6644 9.40798C17.6644 14.568 14.4004 18.36 9.24041 18.36ZM9.24041 15.912C13.1764 15.912 14.8084 12.888 14.8084 9.40798C14.8084 5.95198 13.1764 2.92798 9.24041 2.92798C5.30441 2.92798 3.64841 5.95198 3.64841 9.40798C3.64841 12.888 5.30441 15.912 9.24041 15.912Z" fill="#121212"/>
</svg>
