<svg width="217" height="67" viewBox="0 0 217 67" fill="none" xmlns="http://www.w3.org/2000/svg">
<g clip-path="url(#clip0_8_823)">
<path d="M23.7878 0.0102539L0.566406 16.4628L12.7704 34.0991L35.9918 17.6466L23.7878 0.0102539Z" fill="black"/>
<path d="M23.239 32.4919L0.0175781 48.9445L12.2028 66.5537L35.4242 50.1011L23.239 32.4919Z" fill="black"/>
<path d="M205.627 51.6035C204.121 55.7768 202.387 59.1221 197.28 59.1221H192.534V54.3526H193.843C196.167 54.3526 197.869 54.5182 199.08 53.0277C200.062 51.8023 200.815 49.6824 199.801 47.1655L190.145 23.5831H196.036L203.499 43.5884H203.598L210.439 23.5831H216.298L205.627 51.6035Z" fill="black"/>
<path d="M101.177 42.3618H106.676C105.333 47.4959 101.34 51.4042 94.499 51.4042C86.1852 51.4042 81.1113 45.5748 81.1113 37.1289C81.1113 28.3518 86.1852 22.8537 94.2371 22.8537C102.846 22.8537 107.101 28.948 107.101 38.553H86.6104C86.6104 43.0908 89.4909 46.8664 94.3353 46.8664C98.8853 46.8335 100.718 43.985 101.177 42.3618ZM86.6104 34.4129H101.602C101.602 30.2397 98.6888 27.2257 94.2371 27.2257C89.7857 27.2257 86.6104 30.2397 86.6104 34.4129Z" fill="black"/>
<path d="M133.353 31.9291V50.5762H127.821V33.4858C127.821 29.8425 126.316 27.524 122.551 27.524C118.329 27.524 115.612 30.1074 115.612 34.1482V50.5762H110.113V23.5826H115.612V27.0603H115.711C117.118 24.9405 119.9 22.8208 124.483 22.8208C129.458 22.854 133.353 25.7686 133.353 31.9291Z" fill="black"/>
<path d="M161.995 12.8503V50.6083H156.496V47.4948H156.397C154.99 49.3497 152.371 51.4031 148.247 51.4031C141.406 51.4031 136.332 46.0043 136.332 37.128C136.332 28.2516 141.406 22.8529 148.247 22.8529C152.371 22.8529 154.99 24.807 156.397 26.8605H156.496V12.8503H161.995ZM156.463 37.128C156.463 31.1 153.68 27.3904 149.196 27.3904C144.384 27.3904 141.831 31.8286 141.831 37.128C141.831 42.4272 144.384 46.8656 149.196 46.8656C153.68 46.8324 156.463 43.0896 156.463 37.128Z" fill="black"/>
<path d="M171.388 23.5831H165.889V50.6099H171.388V23.5831Z" fill="black"/>
<path d="M168.638 19.6067C170.392 19.6067 171.813 18.1683 171.813 16.394C171.813 14.6196 170.392 13.1812 168.638 13.1812C166.884 13.1812 165.463 14.6196 165.463 16.394C165.463 18.1683 166.884 19.6067 168.638 19.6067Z" fill="black"/>
<path d="M78.8542 41.2366C78.8542 46.7677 74.7298 51.4046 66.0554 51.4046C57.6434 51.4046 51.2606 46.9666 50.9004 39.0834H56.6285C56.9233 43.5218 59.9017 46.4365 66.0554 46.4365C71.1618 46.4365 73.1257 44.1509 73.1257 41.4684C73.1257 37.3281 70.1798 36.5664 63.4044 34.844C58.0361 33.4861 52.2097 31.3995 52.2097 24.7753C52.2097 18.6147 56.9233 15.137 64.4188 15.137C71.9801 15.137 77.4467 19.1115 77.9376 26.2657H72.2091C71.6856 22.2249 69.1654 20.1052 64.4188 20.1052C60.3273 20.1052 57.8724 21.6619 57.8724 24.2453C57.8724 28.0542 61.0802 28.7167 65.8918 29.9422C73.2569 31.83 78.8542 33.453 78.8542 41.2366Z" fill="black"/>
<path d="M183.794 20.6681V23.6159H188.703V28.1535H183.794V50.5766H178.262V28.1535H174.465V23.6159H178.262V20.2045C178.262 14.5076 180.651 12.4872 185.037 12.4872C186.379 12.4872 187.591 12.6528 188.703 12.8516V17.3892C185.168 17.2236 183.794 17.5879 183.794 20.6681Z" fill="black"/>
</g>
<defs>
<clipPath id="clip0_8_823">
<rect width="216.49" height="66.5403" fill="white"/>
</clipPath>
</defs>
</svg>
